<svg version="1.2" xmlns="http://www.w3.org/2000/svg" viewBox="0 0 632 689" width="632" height="689"><defs><linearGradient id="P" gradientUnits="userSpaceOnUse"/><linearGradient id="g1" x1="573.8" y1="-64.2" x2="-43" y2="164.2" href="#P"><stop offset=".1" stop-color="#aa3f24"/><stop offset=".5" stop-color="#e05525"/><stop offset="1" stop-color="#fbb66a"/></linearGradient><linearGradient id="g2" x1="371" y1="64.6" x2="70.7" y2="698.7" href="#P"><stop offset="0" stop-color="#7b2c16"/><stop offset="1" stop-color="#e05525"/></linearGradient></defs><style>.a{fill:url(#g1)}.b{fill:#803c00}.c{fill:url(#g2)}.d{fill:#fff}</style><g style="opacity:.6"><path class="a" d="m631.3 139.6c-6.5 9.8-28 20-28 20q3.6 8.1 7.1 16.3c-42.2 89.1-104.9 199.4-198.1 312.8-51.1 62.3-102.7 114.9-151 158.9-16.2 14.6-31.9 28.3-47.2 41.1 0 0 23.3-29.7 21.2-60.2-2.2-30.6-40.3 3.1-40.3 3.1 0 0 47.6-77.3 72.2-117.4 24.5-40.1 11.8-40.6-2.6-49.3-14.3-8.6-28.8 49.2-52.2 71.4-23.5 22.2-21.2 21.4-29.7 8.1-8.6-13.3-34.1 13.4-60 25.2-25.9 11.7-20.2-0.3-41.8 2.4-21.6 2.7-31.7 20.1-31.7 20.1 25.3-73-17.7-91.6-17.7-91.6 27.7-34.9 23.5-92.4-9.3-89.4-32.9 2.9-18.9-7.1-18.9-7.1 0 0 35.6-12.7 53.2-30.3 17.5-17.5 25.2-6.5 48-27.1 22.7-20.7 29.2-65.7 23.1-72.3-6.1-6.6-32.7-24.7-41.3-41.7-8.5-17-36.4-28.3-36.4-28.3 0 0 22.1-11.7 68.2-23.2 46.1-11.4 32.2-32.8 32.2-32.8 0 0 41.1 34.3 93.4-2 52.2-36.2-1.3-59.7-7.4-66.3-6.2-6.6 56.2 10 75 13.3 18.7 3.4 34 18 34 18 0 0 22.5 3.3 31.7 15 9.2 11.8 34.5 9 41.2 6.6 6.7-2.4 27.6 9.2 50.6 25.8 52.4 37.8 169-29 162.5-19.1z"/><path class="b" d="m387 246.1c-0.7 63.4 39 119.2 8.7 181.2-15 30.8-40.1 55.5-61.7 81.7-26.6 32.2-52.3 65.3-80.3 96.2-3.5 3.7-10.1-1.4-7.1-5.5 41.3-57.1 94.5-107.9 129.1-169.6 23.5-41.7 14.5-76.8 5.8-120.8-4.4-21.9-6.4-42.3 0.2-63.9 0.9-2.9 5.3-2.4 5.3 0.7z"/><path class="c" d="m592.4 176.9c-42.2 89.1-104.9 199.4-198.1 312.8-51.1 62.3-102.7 114.9-151 158.9 0 0 50.9-56.7 35.2-54.8-15.6 1.8-29.5 15.5-29.5 15.5 0 0 90.2-77.3 98.8-95.5 8.6-18.1-4.3-26-4.3-26 0 0-24-4-44.3-8-20.2-4.1-18.9-10.8-24.8-41.4-5.8-30.5-54.1-18.2-54.1-18.2 0 0 70.2-35.1 105.4-66.5 35.2-31.4 63.6 2.4 75.6-27 12.1-29.4-20.8-30.2-20.8-30.2 0 0 113.7 5.8 134.4-38 23.1-48.7 1.9-124.8 1.9-124.8z"/><path class="b" d="m554.7 3.8c-27 51.2-43.8 102.4-78.4 149.9-29.3 40.1-65.9 76.8-102 110.9-71.5 67.8-180 1.7-253.7-30.5-2.7-1.2-0.7-5.9 2.1-4.9 45.4 17.4 90.1 41 137.5 52.6 63.1 15.5 99.5-14.2 137.8-59.1 30.2-35.4 61-72.5 87.2-110.8 24.3-35.4 39.6-76.4 65.8-110.3 1.6-2.2 5.1-0.4 3.7 2.2z"/><path class="b" d="m339.7 284.9c-81.8 52.5-169.3 104-258.1 143.9-2.5 1.1-4.6-2.3-2.2-3.8 84.1-50.3 172.4-96.3 258.7-142.8 1.8-1 3.3 1.6 1.6 2.7z"/><path class="b" d="m262.8 330.4c-72.6 52.1-121 127.9-182.5 191.4-1.4 1.5-4.3-0.6-3-2.4 51.4-67.9 111.4-145.4 184.6-190.6 1.1-0.7 1.9 0.9 0.9 1.6z"/><path class="b" d="m291.8 124.9c36.4 35 32.8 118.3 99.1 108.8 4.2-0.6 6.9 4.6 3 7.2-20.6 13.2-46.7-1.6-60-18.8-21.7-28.2-21.9-66.8-44.6-94.6-1.5-1.8 0.8-4.3 2.5-2.6z"/><path class="b" d="m340.7 229c-27.6-14.1-55.3-21.8-85.8-26-2-0.3-1.3-3.2 0.4-3.3 31.5-2.9 62.4 7.7 86.8 27.5 1.1 0.8-0.3 2.4-1.4 1.8z"/><path class="b" d="m191.9 223.1c7.6 12.3 13.6 24.6 23.4 35.5 8.8 9.7 19.5 17.6 29.8 25.7 1.5 1.1-0.1 3.9-1.9 3.2-24.4-10.3-48.8-36.5-55.2-62.7-0.5-2.4 2.7-3.7 3.9-1.7z"/><path class="b" d="m202.9 265.3c-21.6-1.2-43.1-1.9-64.6-3.2-1.8-0.1-2.3-2.8-0.4-3.1 21.8-4.2 44.1-2.6 65.3 3.7 1.4 0.4 1.2 2.7-0.3 2.6z"/><path class="b" d="m236.2 341.8c-31.3 11-65.7 22.9-98.7 26.5-2.2 0.3-3.2-3.2-1.2-4.1 30.5-13.4 66.4-20 99-25.5 2.1-0.3 2.9 2.4 0.9 3.1z"/><path class="b" d="m494.8 330c-9.7 34.5-35.3 55-67.3 69.4-39 17.5-91.7 35.3-134.7 25.8-2.9-0.7-1.8-4.4 0.6-4.7 72.1-9 161.7-18.8 198.2-91.9 0.9-1.8 3.8-0.5 3.2 1.4z"/><g style="opacity:.5;mix-blend-mode:overlay"><path class="d" d="m149.8 181.2c16.3 5.2 31.7 12.8 42.8 26.1 1.4 1.6-0.5 4.6-2.4 3.1-13-9.9-26-19.9-41.2-26.2-1.8-0.7-1.1-3.6 0.8-3z"/></g><g style="opacity:.5;mix-blend-mode:overlay"><path class="d" d="m225.8 229.9c19.5 13.9 40.5 20.7 63.4 26.9 2.3 0.6 1.8 4.3-0.6 4.2-24.1-1.1-46.8-13.2-64.9-28.4-1.4-1.3 0.5-3.7 2.1-2.7z"/></g><g style="opacity:.5;mix-blend-mode:overlay"><path class="d" d="m158.6 290.3c19 7.4 38.9 11.3 59.1 13.7 3.5 0.4 3.7 5.6 0 5.6-21.5 0.1-41.6-6-60.6-15.9-1.8-1-0.5-4.2 1.5-3.4z"/></g><g style="opacity:.5;mix-blend-mode:overlay"><path class="d" d="m77.5 391.3c-11.1 6.6-23.6 12.1-35.8 16.2-2.9 1-4.9-3.7-2.1-5.1 11.6-5.7 24.3-10.6 36.8-13.7 1.5-0.4 2.4 1.7 1.1 2.6z"/></g><g style="opacity:.5;mix-blend-mode:overlay"><path class="d" d="m206.9 391.1c-9.6 13.3-14.8 29.1-20.8 44.3-0.5 1.3-2.8 1.2-2.6-0.4 1.7-17.5 10.9-31.8 21.6-45.3 0.8-1.1 2.6 0.3 1.8 1.4z"/></g><g style="opacity:.5;mix-blend-mode:overlay"><path class="d" d="m109.9 469.7c-9.1 13.7-18.9 27-28.6 40.4-8.5 11.8-16.4 24.9-26.8 35.3-1.7 1.7-4.1-0.5-3.1-2.5 6.6-13.8 17-26.1 25.8-38.6 8.9-12.7 17.6-25.6 27.1-37.9 2.4-3.2 7.9-0.3 5.6 3.3z"/></g><g style="opacity:.5;mix-blend-mode:overlay"><path class="d" d="m413.7 250c2.5 10.4 5.6 22.9 4.4 33.7-0.2 1.8-2.5 2.2-3.2 0.4-4-10.1-4.1-22.9-4.3-33.7-0.1-1.8 2.7-2.2 3.1-0.4z"/></g><g style="opacity:.5;mix-blend-mode:overlay"><path class="d" d="m359.6 176.8c0.4 6 2.8 11.7 6.7 16.3 3.5 4.3 8.1 6.4 12.5 9.5 1.7 1.3 1.2 4.2-1.2 4.2-14.6 0.1-22.6-18-20.8-30.4 0.2-1.7 2.8-1.1 2.8 0.4z"/></g><g style="opacity:.5;mix-blend-mode:overlay"><path class="d" d="m273.7 129.9c11.2 8.2 22.2 24 20.2 38.7-0.2 1.6-2.8 1.8-3.4 0.4-2.8-5.9-3.9-12.5-6.9-18.4-3.1-6.5-7.4-12.6-11.9-18.1-1.1-1.3 0.3-3.8 2-2.6z"/></g><g style="opacity:.5;mix-blend-mode:overlay"><path class="d" d="m264.3 156.6c1.8 7.2 4.2 13.9 7.2 20.7 1.4 3.1-2.6 5.5-4.6 2.7-4.8-6.5-6.9-14.9-6.1-22.9 0.2-2 3-2.6 3.5-0.5z"/></g><g style="opacity:.5;mix-blend-mode:overlay"><path class="d" d="m396.6 156.7c6.8 1.2 13.9 1.9 20.5 4.1 2.1 0.7 1.9 4.2-0.5 4-7.2-0.6-14.1-2.7-21.1-4.3-2.5-0.6-1.4-4.2 1.1-3.8z"/></g><g style="opacity:.5;mix-blend-mode:overlay"><path class="d" d="m489.7 297.4c-10.6 9.1-30.4 20.2-44.8 15.3-1.6-0.6-2.4-3.2-0.6-4 6.3-2.8 13.4-2.8 20-4.7 8-2.3 15.5-5.9 22.8-10 2.1-1.2 4.5 1.8 2.6 3.4z"/></g><g style="opacity:.5;mix-blend-mode:overlay"><path class="d" d="m455.4 347.4c-12.4 15.7-33 24.3-52.5 26-1.9 0.2-2.2-2.7-0.5-3.2 19.1-5.4 34.7-14.5 51.4-24.9 1.3-0.8 2.4 1 1.6 2.1z"/></g><g style="opacity:.5;mix-blend-mode:overlay"><path class="d" d="m333.1 387.7c-10.6 7.3-25.8 12.2-38.2 15-2.1 0.5-3.4-2.3-1.5-3.4 11.2-6.5 25.5-13.1 38.4-14.9 1.9-0.2 3.1 2.1 1.3 3.3z"/></g><g style="opacity:.5;mix-blend-mode:overlay"><path class="d" d="m370.2 463.8c-7.7 1-15.3 1.4-23.1 1.4-1.2 0-1.6-2-0.3-2.2 7.9-1.1 15.5-1.9 23.4-2 1.9 0 1.7 2.5 0 2.8z"/></g><g style="opacity:.5;mix-blend-mode:overlay"><path class="d" d="m554.6 224.6c-4.1 11.5-8.7 24.4-16 34.3-1.2 1.8-4.2 0.8-3.6-1.5 3.1-11.9 10.1-23.6 16.4-34.1 1-1.7 3.9-0.6 3.2 1.3z"/></g><g style="opacity:.5;mix-blend-mode:overlay"><path class="d" d="m308.9 331.7c-3.8 6.4-8.2 12.5-12.5 18.5-3.5 4.8-6.2 10.5-11.9 12.7-1.3 0.5-2.9-0.8-2.8-2.2 0.3-6.4 5.5-11.4 9.1-16.4 4.1-5.7 8.2-11.4 12.8-16.7 2.6-2.9 7.2 0.9 5.3 4.1z"/></g><g style="opacity:.5;mix-blend-mode:overlay"><path class="d" d="m211 472c-1.5 7.4-4.7 14.1-8.2 20.7-3.1 5.8-6.4 12.8-12.4 15.9-1.8 0.8-3.3-0.6-3.1-2.4 0.9-6.3 5.8-11.8 8.9-17.3 3.6-6.2 6.6-12.7 10.3-18.8 1.5-2.5 5.1-0.8 4.5 1.9z"/></g><g style="opacity:.5;mix-blend-mode:overlay"><path class="d" d="m496.5 208.7c0.2 5 0.3 9.9 0.2 14.8-0.1 4 0.3 8.4-1.9 11.9-0.7 1.1-2.6 1.3-3.3 0-2-3.7-1.4-7.8-1.2-11.9 0.2-4.9 0.6-9.8 1.1-14.8 0.3-3.2 5-3.4 5.1 0z"/></g></g></svg>