<svg version="1.2" xmlns="http://www.w3.org/2000/svg" viewBox="0 0 284 168" width="284" height="168"><defs><linearGradient id="P" gradientUnits="userSpaceOnUse"/><linearGradient id="g1" x1="-34.3" y1="90.6" x2="267.8" y2="-157.3" href="#P"><stop offset="0" stop-color="#fbb66a"/><stop offset=".8" stop-color="#e05525"/><stop offset="1" stop-color="#7b2c16"/></linearGradient></defs><style>.a{fill:url(#g1)}.b{fill:#724331}.c{fill:#fff}</style><path class="a" d="m233.6 110.1c-7.8 5.8-4.3 33.1-41.2 50.2-35 16.2-54.2 0.2-95.9 6.2-31.1 4.5-47.1-20.8-61-20-18.5 1.1-34-17.2-35.1-27-0.1-2 5.6-25.4 27.1-38.3 24.6-14.6 6.4-28.6 41.3-43.6 13-5.6 24.2-7.7 33.6-12.6 13.9-7.2 6.4-19.5 15.5-22.2 27.1-7.8 63.8 3.7 87.8 18 7.7 4.5 14.5 10.1 23.1 13.3 8.6 3.3 19.9 3.8 28.8-1.5 0 0 36.9 32.4-24 77.5z"/><path class="b" d="m93.8 89.3c33.8-9.5 68.6-15.6 102.3-25.6 35.5-10.6 57.2-29.5 85-52.2 1.3-1 3 0.6 1.8 1.8-19.1 19.4-37.3 38.1-63.2 48.1-39 15-84.7 22-125.9 27.9-0.1 0-0.1 0 0 0z"/><path class="b" d="m87.8 49.6c49.9-2.3 97.2 22.2 146.1 2.6 0.6-0.3 0.4-1.2-0.3-1.1-31.2 6.6-57.7 8.1-88.9 1.6-19.4-4-36.9-7.2-56.9-5.2-1.3 0.1-1.3 2.1 0 2.1z"/><path class="b" d="m91.5 122.7c38.2-12.5 67.2-34.3 101.3-54.4 0.8-0.5 1.4 0.6 0.7 1.2-30.8 23.2-63.8 45.1-101.6 54.7-1 0.3-1.4-1.2-0.4-1.5z"/><path class="b" d="m91.5 122.7c38.2-12.5 67.2-34.3 101.3-54.4 0.8-0.5 1.4 0.6 0.7 1.2-30.8 23.2-63.8 45.1-101.6 54.7-1 0.3-1.4-1.2-0.4-1.5z"/><path class="b" d="m246.3 46.6c-17.8 27.8-44 52.1-70.9 71.1-0.7 0.5-1.5-0.6-0.9-1.2 26.6-21.3 48.7-44.9 70.8-70.7 0.5-0.5 1.4 0.2 1 0.8z"/><path class="b" d="m76.2 74.9c21.1-3.6 42.5 2.9 63.7 3.3 0.8 0 1 1.3 0.2 1.4-21.3 3.2-42.3-6.5-63.8-3.9-0.4 0-0.5-0.7-0.1-0.8z"/><g style="opacity:.5;mix-blend-mode:overlay"><path class="c" d="m177.6 35.5c7.6 2.1 15.4 4 22.9 6.5 0.8 0.3 0.5 1.6-0.4 1.4-7.7-2-15.2-4.6-22.7-7-0.6-0.2-0.4-1 0.2-0.9z"/></g><g style="opacity:.5;mix-blend-mode:overlay"><path class="c" d="m119 144.1c7.7-0.2 14.8-2.6 22.1-4.8 1.4-0.4 2.1 1.5 0.9 2.2-6.9 4.4-15 5.5-23 4.9-1.4-0.1-1.5-2.3 0-2.3z"/></g><g style="opacity:.5;mix-blend-mode:overlay"><path class="c" d="m137.9 147.4c5-2.5 9.9-4.9 15.2-6.7 1.1-0.4 1.7 1.2 0.8 1.7-4.9 2.8-10 5-15.2 7-1.1 0.5-1.9-1.4-0.8-2z"/></g><g style="opacity:.5;mix-blend-mode:overlay"><path class="c" d="m201.1 115.7c-5.1 4.7-10 9.7-15.1 14.4-1.1 1-2.6-0.5-1.6-1.6 4.7-5.4 10-9.9 15.7-14.1 0.7-0.6 1.6 0.7 1 1.3z"/></g><g style="opacity:.5;mix-blend-mode:overlay"><path class="c" d="m89 107.8c7.9-3.1 15.8-7 24-8.8 1.3-0.3 2.3 1.6 1 2.2-7.7 3.7-16.5 5.4-24.6 7.8-0.8 0.2-1.1-1-0.4-1.2z"/></g><g style="opacity:.5;mix-blend-mode:overlay"><path class="c" d="m56.3 82.2c4.2-0.9 8.5-1.7 12.8-1.7 1.6 0 1.9 2.3 0.4 2.7-4.2 1.2-8.5 1.6-12.8 2-1.7 0.1-2-2.6-0.4-3z"/></g></svg>