<svg version="1.2" xmlns="http://www.w3.org/2000/svg" viewBox="0 0 285 206" width="285" height="206"><defs><linearGradient id="P" gradientUnits="userSpaceOnUse"/><linearGradient id="g1" x1="12.5" y1="-28.7" x2="285.8" y2="-6.3" href="#P"><stop stop-color="#ac6227"/><stop offset="1" stop-color="#faa916"/></linearGradient></defs><style>.a{fill:url(#g1)}.b{fill:#803c00}.c{fill:#fff}</style><path class="a" d="m90.1 21.2c6.4 39 51.7-8.3 51.7-8.3l-3.7 10.3c14.6-2.7 41.3-22.6 41.3-22.6 0 0-15.7 26.6 1.5 40.5 17.1 13.9 60.9-27.7 60.9-27.7-7.3 18.7 27-0.7 27-0.7-1.6 8.6 15.7-3.5 15.7-3.5 0 0-32.6 57-45.3 71.3-12.7 14.4-48.3 25.9-48.3 25.9-0.3 15.4 62.7 21.5 62.7 21.5l-50.5 29.6c0 0-9.1 16.5-40.4 11.1-31.3-5.5-28.6 9.2-28.6 9.2-2.3 15.2-14.2 20-14.2 20 0 0-27.1 13.2-38.9 5.5-11.9-7.8-25.8-2.2-25.8-2.2-6.3-6.2-7.6-13.1-11.6-35.5-3.9-22.5-40.4-12-40.4-12 7.4-7.1 6.8-36 7.6-44.6 0.7-8.6 8.1-17.6 8.1-17.6l-15.2-13.8c0 0 20.2 0.7 27.2-2.6 7-3.3 20.8-7.9 20.8-7.9 0.6-19.2 38.4-45.9 38.4-45.9z"/><path class="b" d="m60.3 66.6c33.6 15.7 69.9-3.3 90.6-30.6 0.5-0.6-0.5-1.3-1-0.8-11.4 10.5-21.7 21.6-36.2 28.1-17.9 8.1-34.2 6.4-52.8 2-0.8-0.1-1.3 1-0.6 1.3z"/><path class="b" d="m218.6 130.9c-52.4 3.3-95.7-20.6-139.4-45.8-16.6-9.6-33.3-19.4-48.6-30.9-4.5-3.3-21.9-14.8-23.9-22.5-5.6-22 3.8-18.2 12.3-15.2 1.3 0.5 2.2-1.6 0.9-2.2-38.1-17.4-10.9 26.5 2.4 37.4 50.1 41.2 129.4 88.1 196.3 80.9 1-0.1 1.1-1.8 0-1.7z"/><path class="b" d="m57.8 69.2c11.3 7.3 10.7 30.3 15 42.6 9.3 26.6 20.7 55.1 41.4 74.9 0.3 0.3-0.2 0.7-0.5 0.5-17.3-13.3-25.5-32.5-34-52.1-4.4-9.9-8.4-20-11.8-30.3-3.1-9.6-3.5-27.7-11.1-34.4-0.6-0.6 0.2-1.7 1-1.2z"/><path class="b" d="m19.2 134.8c14.5-21.7 28.4-42.8 37.8-67.3 0.5-1.4 2.7-0.9 2.2 0.6-7 23.6-22.2 49.4-39.1 67.4-0.4 0.5-1.2-0.2-0.9-0.7z"/><path class="b" d="m247.7 33c-55.8 35.5-123.7 62.2-188.2 34.2-0.5-0.2-0.1-1.1 0.4-0.9 68.1 23.1 127.8-0.3 186.9-34.9 1-0.6 1.8 1 0.9 1.6z"/><path class="b" d="m90.6 89.2c19.1 20.1 38.7 38.1 59.7 56.2 0.6 0.4-0.1 1.3-0.7 0.9-22.4-14.5-43.8-35.1-59.7-56.5-0.3-0.5 0.3-0.9 0.7-0.6z"/><path class="b" d="m158 125.2c3.4 10.8 18.3 19.2 28.9 20.3 0.8 0.1 0.8-1 0.2-1.3-5.8-2.3-11.4-4.5-16.5-8.1-4.6-3.2-7.9-7.7-12.3-11.1-0.1-0.1-0.3 0.1-0.3 0.2z"/><path class="b" d="m109 99.4c5.5 5.3 19.3 3.9 26.5 3.6 7-0.3 14-1.3 21-1.5 0.6 0 0.7 1 0.1 1.1-10.1 2.6-21.2 2.6-31.6 2.2-6-0.2-12.6 0.1-16.4-5.1-0.2-0.2 0.2-0.5 0.4-0.3z"/><path class="b" d="m127.1 77.1c23.1 4.5 42.2 4.3 64.6-3.4 0.6-0.3 1 0.7 0.5 1-19.4 10.1-45.2 12.1-65.4 3.2-0.5-0.2-0.1-0.9 0.3-0.8z"/><path class="b" d="m67.6 100c3.2 21.4 25 34.3 42.2 44.1 0.5 0.3 1-0.4 0.6-0.7-7.5-6.3-15.7-11.4-23.4-17.5-9.1-7.1-14.3-15.5-18.5-26.2-0.2-0.6-1-0.3-0.9 0.3z"/><path class="b" d="m75.9 121.7c5.6 18.2 11.2 38.1 12.2 57.1 0 0.7-1 0.8-1.1 0.2-5.1-18.6-7.8-38.2-11.8-57.1-0.1-0.4 0.6-0.6 0.7-0.2z"/><path class="b" d="m53.3 87.4c-1.1 12.9 0.9 25.6 0.6 38.4 0 0.8-1.2 1-1.4 0.2-3.3-12.3-1.6-26.1-0.1-38.6 0.1-0.5 0.9-0.5 0.9 0z"/><path class="b" d="m23.1 109.1c4.2-4 9.2-7.1 13.5-11 4.3-3.9 8-8.4 12.2-12.3 0.6-0.5 1.4 0.1 1 0.7-3 5.1-7.3 9.3-11.6 13.2-4.3 3.8-9 8.1-14.3 10.4-0.6 0.2-1.4-0.5-0.8-1z"/><path class="b" d="m90.9 70.4c12.5-4.5 21.5-10.5 30.4-20.4 0.4-0.4 1 0.1 0.8 0.5-6.2 10.8-18.5 19.5-30.8 21.4-1 0.1-1.3-1.1-0.4-1.5z"/><path class="b" d="m132.2 56.5c10-2.3 17.8-7.1 26.1-12.7 0.8-0.6 1.6 0.6 1 1.2-6.6 7.7-17.1 11.7-27 12.8-0.7 0.1-0.8-1.1-0.1-1.3z"/><g style="opacity:.5;mix-blend-mode:overlay"><path class="c" d="m67.3 147.2c1.3 7.1 3.3 14.4 3.4 21.5 0.1 0.9-1.1 1-1.4 0.2-1.8-6.9-2-14.4-2.7-21.6 0-0.3 0.6-0.4 0.7-0.1z"/></g><g style="opacity:.5;mix-blend-mode:overlay"><path class="c" d="m66.9 183c-1.1 3.5-2 7.1-3.5 10.5-0.3 0.6-1.2 0.1-1.1-0.5 0.9-3.5 2.2-6.9 3.4-10.4 0.3-0.7 1.4-0.4 1.2 0.4z"/></g><g style="opacity:.5;mix-blend-mode:overlay"><path class="c" d="m93.5 191.2c2.3 0 4.6 0 6.8 0.5 0.8 0.2 0.5 1.2-0.2 1.3-2.2 0.1-4.4-0.3-6.6-0.6-0.8-0.1-0.9-1.3 0-1.2z"/></g><g style="opacity:.5;mix-blend-mode:overlay"><path class="c" d="m97.2 114.7c4.7 5.5 9.7 10.7 14.4 16.2 0.6 0.8-0.4 1.9-1.2 1.2-5.4-4.9-10-10.7-14.1-16.7-0.4-0.6 0.5-1.3 0.9-0.7z"/></g><g style="opacity:.5;mix-blend-mode:overlay"><path class="c" d="m127.1 146c4.4 1.6 9.3 3 13.4 5.4 0.8 0.6 0.3 1.9-0.7 1.6-4.7-1.1-9-3.5-13.4-5.5-0.9-0.4-0.2-1.9 0.7-1.5z"/></g><g style="opacity:.5;mix-blend-mode:overlay"><path class="c" d="m160.9 157.7c4.4 1 9.2 0.8 13.3 2.2 0.8 0.3 0.9 1.6 0 1.8-4.4 1.3-9.7-0.6-13.8-2.1-1.2-0.4-0.7-2.2 0.5-1.9z"/></g><g style="opacity:.5;mix-blend-mode:overlay"><path class="c" d="m152.2 134.4c1.9 0.8 3.8 1.5 5.7 2.5 0.7 0.4 0.2 1.5-0.6 1.3-1.9-0.7-3.8-1.6-5.7-2.5-0.8-0.4-0.2-1.7 0.6-1.3z"/></g><g style="opacity:.5;mix-blend-mode:overlay"><path class="c" d="m167.3 99.7c4.5 0.6 9 0.6 13.5 0.9 0.7 0 0.9 1.1 0.2 1.3-4.7 0.9-9.2 0.4-13.9-0.6-0.9-0.2-0.7-1.7 0.2-1.6z"/></g><g style="opacity:.5;mix-blend-mode:overlay"><path class="c" d="m197.8 88.8c9.3-2.6 17.1-7.1 25.5-11.6 1.1-0.5 2.4 0.9 1.4 1.8-7.4 6.1-17.2 9.4-26.5 11.3-1 0.2-1.4-1.2-0.4-1.5z"/></g><g style="opacity:.5;mix-blend-mode:overlay"><path class="c" d="m219.8 67.8c3.5-1.2 6.3-3.2 9-5.7 0.4-0.3 1 0.1 0.7 0.5-2.4 3.3-5.5 5.2-9.3 6.5-0.9 0.2-1.2-1.1-0.4-1.3z"/></g><g style="opacity:.5;mix-blend-mode:overlay"><path class="c" d="m239.4 48.4c4.3-3.7 8.2-8 11.8-12.4 0.3-0.3 0.8 0.1 0.6 0.5-3 5.1-6.8 9.1-11.4 12.9-0.7 0.6-1.7-0.4-1-1z"/></g><g style="opacity:.5;mix-blend-mode:overlay"><path class="c" d="m11.2 145.7c-0.8-4.8 0.7-11.3 3-15.5 0.4-0.8 1.4-0.2 1.3 0.5-0.5 2.5-1.4 5-2 7.5-0.5 2.5-0.8 5.1-1.6 7.5-0.1 0.3-0.6 0.4-0.7 0z"/></g><g style="opacity:.5;mix-blend-mode:overlay"><path class="c" d="m32.5 131.7c1.3-2.3 2.7-4.5 4.5-6.5 0.4-0.4 1.1 0.2 0.8 0.7-1.3 2.3-3 4.3-4.7 6.2-0.3 0.4-0.9-0.1-0.6-0.4z"/></g><g style="opacity:.5;mix-blend-mode:overlay"><path class="c" d="m100.1 55.4c1.4-2.6 2.9-5.2 4.7-7.4 0.5-0.7 1.4 0.1 1 0.8-1.2 2.6-2.9 5-4.7 7.3-0.5 0.5-1.2-0.2-1-0.7z"/></g><g style="opacity:.5;mix-blend-mode:overlay"><path class="c" d="m114.6 84.8c2.3 0.9 4.6 1.8 7 2.4 2.4 0.6 4.9 0.7 7.3 1.3 0.7 0.2 0.7 1.2 0 1.4-4.9 1.1-10.8-1.1-14.8-4-0.6-0.4-0.2-1.4 0.5-1.1z"/></g><g style="opacity:.5;mix-blend-mode:overlay"><path class="c" d="m150.5 58.4c7.5 0.9 14.3-1.5 20-6.3 0.7-0.5 1.6 0.4 1 1-5.4 5.9-13.4 8-21.1 6.3-0.6-0.1-0.4-1 0.1-1z"/></g><g style="opacity:.5;mix-blend-mode:overlay"><path class="c" d="m63.5 120c0.1 4.2-0.1 8.4-1.2 12.6-0.1 0.7-1.1 0.4-1.2-0.2-0.3-4.3 0.2-8.4 1-12.6 0.1-0.8 1.4-0.6 1.4 0.2z"/></g><g style="opacity:.5;mix-blend-mode:overlay"><path class="c" d="m53.7 144.4c-0.5 2.8-1.3 5.6-1.8 8.5-0.5 2.9-0.6 5.8-1.4 8.5-0.2 0.7-1.3 0.8-1.4 0-1.2-5.5 0.9-12.6 3.3-17.6 0.4-0.8 1.5-0.2 1.3 0.6z"/></g><g style="opacity:.5;mix-blend-mode:overlay"><path class="c" d="m31.3 90.8c4.9-1.9 8.1-4.9 11.7-8.6 0.4-0.5 1.5 0 1.2 0.7-2 5.1-7.2 8.7-12.4 9.7-1.2 0.3-1.6-1.3-0.5-1.8z"/></g><g style="opacity:.5;mix-blend-mode:overlay"><path class="c" d="m69.3 56.5c3.7-4.8 8.5-10.3 13.7-13.5 0.6-0.4 1.3 0.4 0.9 0.9-3.2 5.2-8.9 10-13.8 13.7-0.6 0.5-1.2-0.5-0.8-1.1z"/></g><g style="opacity:.5;mix-blend-mode:overlay"><path class="c" d="m86.6 59c1.5-1.8 3-3.5 5-4.7 0.5-0.3 1.2 0.3 0.8 0.8-1.4 1.9-3.2 3.4-5.1 4.8-0.6 0.4-1.1-0.4-0.7-0.9z"/></g><g style="opacity:.5;mix-blend-mode:overlay"><path class="c" d="m191.7 68.5c4-1.8 8.8-2.4 13.2-1.7 0.6 0.1 0.6 1.2 0 1.3-4.2 0.8-8.6 1.4-12.8 1.7-0.7 0-1-1-0.4-1.3z"/></g></svg>