<svg version="1.2" xmlns="http://www.w3.org/2000/svg" viewBox="0 0 236 202" width="236" height="202"><defs><linearGradient id="P" gradientUnits="userSpaceOnUse"/><linearGradient id="g1" x1="-10.5" y1="145.2" x2="214.8" y2="264.2" href="#P"><stop stop-color="#994321"/><stop offset="1" stop-color="#ea8260"/></linearGradient></defs><style>.a{fill:url(#g1)}.b{fill:#724331}.c{fill:#fff}</style><path class="a" d="m19.7 27.3c6.8 7.4 17.4 10.1 26.3 9.5 9-0.6 16.9-3.9 25.3-5.9 26.4-6.5 63.9-6.9 87 8 7.7 5-2.7 14.4 8.1 25.1 7.4 7.2 17.3 12.3 27.8 21.2 28.3 23.8 7.4 31.7 26.2 52.3 16.5 18 15.2 41.5 14.5 43.2-3.8 8.9-23.4 21.6-40.4 15.3-12.7-4.6-34.7 14.4-62.4 1.5-37.2-17.4-59.6-7.8-87.7-32.8-29.6-26.3-18.5-50.7-24.2-58.4-44-59.2-0.5-79-0.5-79z"/><path class="b" d="m156.4 126.3c-35.3-15.7-72.5-35.2-104.2-57.5-24.2-17.1-37.3-40.7-50.7-66.6-0.8-1.4 1.2-2.6 2.2-1.2 8.2 11.7 13.6 25.1 22.1 36.7 11.4 15.7 28.6 27 44.7 37.4 28 18.1 58.1 32.9 85.9 51.2 0 0 0 0.1 0 0z"/><path class="b" d="m173.7 89c-19.6-8.1-38.4-9.5-59.1-11.5-29.7-2.9-51.9-12.4-77.8-26.2-0.5-0.2-1.1 0.5-0.6 0.9 38.7 32.6 91.8 22.9 136.9 38.8 1.3 0.4 1.7-1.5 0.6-2z"/><path class="b" d="m148.3 159.4c-32.4-19.3-57.7-49.3-79.3-79.8-0.5-0.6 0.5-1.3 1-0.8 26.3 28 47 57.1 79.1 79.3 0.8 0.6 0 1.8-0.8 1.3z"/><path class="b" d="m27.3 43c13 30.5 27.4 58.6 46.1 85.9 0.6 0.8-0.7 1.5-1.3 0.8-19.6-25.7-36.5-55.1-45.9-86.2-0.2-0.6 0.9-1.1 1.1-0.5z"/><path class="b" d="m176.4 118.5c-19.3-8.5-41.6-5.3-60.4-14.3-0.8-0.3-0.2-1.5 0.5-1.3 19.8 5.6 41.7 5.7 60.3 15 0.4 0.2 0 0.8-0.4 0.6z"/><g style="opacity:.5;mix-blend-mode:overlay"><path class="c" d="m93.4 53.5c-7.7 0.1-15.5 0.4-23.2 0-0.9 0-0.9-1.3 0-1.3 7.7-0.3 15.5 0.2 23.2 0.4 0.6 0 0.6 0.9 0 0.9z"/></g><g style="opacity:.5;mix-blend-mode:overlay"><path class="c" d="m116.8 172.4c-7.6-1.7-15-4.9-20.1-11-0.8-0.9 0.2-2.6 1.4-1.8 6.2 4.1 12.2 8.3 19.3 10.7 1.3 0.4 0.8 2.4-0.6 2.1z"/></g><g style="opacity:.5;mix-blend-mode:overlay"><path class="c" d="m97.4 169.5c-4.3-3.3-8.3-6.7-12-10.6-0.7-0.7 0.2-2.1 1.1-1.5 4.5 3.2 8.4 6.9 12.4 10.6 1 1-0.5 2.4-1.5 1.5z"/></g><g style="opacity:.5;mix-blend-mode:overlay"><path class="c" d="m50.3 119.9c4.1 5.5 7.7 11.1 10.6 17.3 0.5 1.3-1.3 2.5-2 1.2-3.4-5.9-6.5-11.9-10-17.7-0.5-0.9 0.8-1.6 1.4-0.8z"/></g><g style="opacity:.5;mix-blend-mode:overlay"><path class="c" d="m155 145.9c-7-4.5-14.6-8.5-20.8-14.1-1-1 0.3-2.5 1.4-1.9 7.3 4 13.6 9.9 20.1 15 0.5 0.5-0.2 1.4-0.7 1z"/></g><g style="opacity:.5;mix-blend-mode:overlay"><path class="c" d="m192.1 132.9c-3.9-1.5-7.8-3.1-11.3-5.4-1.3-0.8-0.5-2.9 1-2.4 4 1.2 7.8 3.1 11.4 5.1 1.5 0.8 0.5 3.4-1.1 2.7z"/></g></svg>