
<svg version="1.2" xmlns="http://www.w3.org/2000/svg" viewBox="0 0 253 187" width="253" height="187"><defs><linearGradient id="P" gradientUnits="userSpaceOnUse"/><linearGradient id="g1" x1="262.6" y1="-2.4" x2="33.6" y2="-25.2" href="#P"><stop offset=".1" stop-color="#aa3f24"/><stop offset=".5" stop-color="#e05525"/><stop offset="1" stop-color="#fbb66a"/></linearGradient><linearGradient id="g2" x1="179.1" y1="10.8" x2="-10.1" y2="162" href="#P"><stop offset="0" stop-color="#7b2c16"/><stop offset="1" stop-color="#e05525"/></linearGradient></defs><style>.a{fill:url(#g1)}.b{fill:#803c00}.c{fill:url(#g2)}.d{fill:#fff}</style><path class="a" d="m249.3 79.3c-3.5 2-11.7 1.9-11.7 1.9q-0.1 3.1-0.2 6.2c-26.6 21.2-62.8 45.9-108.9 67-25.3 11.6-49.2 20.1-70.9 26.4q-10.8 3.2-20.8 5.6c0 0 11.7-5.6 15.6-15.5 4-9.8-12.9-5.1-12.9-5.1 0 0 26.5-16.7 40.1-25.5 13.7-8.7 9.9-10.8 6.7-15.6-3.1-4.9-16.4 10.9-27 14.2-10.6 3.3-9.8 3.4-10.4-2-0.7-5.4-12.7-1-22.5-1.3-9.8-0.2-6.2-3.1-13.3-5.6-7.1-2.4-12.9 1.5-12.9 1.5 18.9-18.8 8.4-31.1 8.4-31.1 13.9-6.6 21.3-25.1 10.7-29.2-10.7-4-4.8-5-4.8-5 0 0 12.9 1.4 21.1-1.3 8.1-2.8 8.8 1.8 19-1.2 10.1-3 19-15.9 18.1-18.9-0.9-3-6.4-12.6-6.5-19.2-0.1-6.6-7-14.3-7-14.3 0 0 8.6-0.3 24.6 3.1 16.1 3.5 15-5.3 15-5.3 0 0 7.5 16.9 29.3 13.6 21.7-3.4 8.6-18.8 7.7-21.7-0.9-3 15.9 11.6 21.3 15.5 5.3 3.8 7.8 10.7 7.8 10.7 0 0 6.5 4.4 7.5 9.4 1.1 5.1 9.4 8.1 11.8 8.3 2.5 0.3 7.2 7.1 11.8 15.7 10.6 19.6 56.8 16.6 53.3 18.7z"/><path class="b" d="m163.3 77.5c-9.9 20.2-6.2 43.5-25.8 58.3-19.4 14.6-47.5 23.7-70 32.8-1.7 0.7-2.8-2-1.2-2.8 21.9-11.5 48-19.2 67.6-34.6 18.8-14.8 13.1-38.3 27.9-54.9 0.7-0.8 1.9 0.3 1.5 1.2z"/><path class="c" d="m237.4 87.4c-26.6 21.2-62.8 45.9-108.9 67-25.3 11.6-49.2 20.1-70.9 26.4 0 0 24.4-9.8 19.2-11.6-5.1-1.8-11.5 0.3-11.5 0.3 0 0 39.7-10.3 45.1-14.7 5.4-4.3 2.7-8.7 2.7-8.7 0 0-6.9-4.8-12.6-9.2-5.6-4.3-4.2-6.2-1.4-16.5 2.8-10.4-14-13.9-14-13.9 0 0 27.1-0.3 42.7-4.7 15.7-4.4 19.4 10.4 27.6 3.1 8.2-7.3-1.9-12.5-1.9-12.5 0 0 34.4 19 47.5 8.5 14.5-11.6 19.4-38.4 19.4-38.4z"/><path class="b" d="m252.1 27.6c-28.8 23-63.2 51.6-102.1 55.1-30.2 2.7-49.9-29.1-67.4-49.2-0.8-0.9 0.5-2.2 1.3-1.3 9.2 10.1 18 23.1 28.7 31.5 30.8 24.2 42.8 14.8 69.4 2.7 24.9-11.4 45.8-26.4 69.2-40 0.7-0.4 1.6 0.6 0.9 1.2z"/><path class="b" d="m142.7 82.3c-33.5 4-68.1 6-101.9 5.6-0.9-0.1-0.9-1.5 0-1.6 33.9-2.2 68-3.8 101.9-5.1 0.7 0 0.7 1 0 1.1z"/><path class="b" d="m112.1 84.8c-30.3 5.3-57.2 20.9-85.7 31.7-0.7 0.3-1.2-0.9-0.5-1.2 26.6-13 56.4-28 86.1-31.2 0.4 0 0.4 0.6 0.1 0.7z"/><path class="b" d="m152.1 25.5c5.6 16-7.5 42 14.4 48.7 1.5 0.5 1.1 2.6-0.4 2.6-24.7 1.3-12.5-38.6-15.2-51-0.1-0.8 1-1.1 1.2-0.3z"/><path class="b" d="m151.5 65.1c-6.3-8.5-13.8-15.2-22.6-21-0.5-0.3-0.2-1.3 0.5-1.1 10.1 3.8 18.3 11.9 22.8 21.7 0.2 0.4-0.4 0.8-0.7 0.4z"/><path class="b" d="m106.3 40.8c0.3 4.7 0.4 9.3 1.7 13.9 1.2 4.6 3.5 8.7 5.5 13 0.2 0.6-0.5 1.4-1.1 0.8-6.3-6.9-9.3-18.8-7.6-27.9 0.2-0.9 1.4-0.6 1.5 0.2z"/><path class="b" d="m103.2 55.5c-6.4-3.8-13-7.2-19.5-10.8-0.6-0.3-0.2-1.2 0.4-1 7.5 2 13.9 6 19.7 11.1 0.4 0.3-0.1 0.9-0.6 0.7z"/><path class="b" d="m102.1 84.3c-11.3-1.3-23.8-2.8-34.6-6.7-0.8-0.3-0.7-1.5 0.2-1.5 11.5 0.4 23.6 3.9 34.6 7.1 0.6 0.2 0.5 1.2-0.2 1.1z"/><path class="b" d="m184 119.8c-17 18.7-58.7 13.5-77.1-1.1-0.6-0.6 0.1-1.7 0.8-1.4 24.2 8.2 52.6 18.5 75.6 1.5 0.6-0.4 1.2 0.5 0.7 1z"/><g style="opacity:.5;mix-blend-mode:overlay"><path class="d" d="m99.6 21.4c4.2 4.1 7.8 8.7 9.3 14.6 0.2 0.7-0.9 1.2-1.3 0.5-2.5-5-5-10-8.8-14.3-0.4-0.6 0.3-1.3 0.8-0.8z"/></g><g style="opacity:.5;mix-blend-mode:overlay"><path class="d" d="m115.7 48c4 7.3 9.5 12.5 15.7 17.9 0.6 0.6-0.2 1.6-0.9 1.2-7.3-3.8-12.5-11.2-15.7-18.5-0.3-0.7 0.6-1.2 0.9-0.6z"/></g><g style="opacity:.5;mix-blend-mode:overlay"><path class="d" d="m85.8 56.6c4.8 5.2 10.3 9.4 16.3 13.2 1 0.7 0.1 2.2-1 1.7-6.7-3.3-12-8.2-16.3-14.2-0.5-0.6 0.5-1.3 1-0.7z"/></g><g style="opacity:.5;mix-blend-mode:overlay"><path class="d" d="m45.3 75.6c-4.4 0.3-9 0.2-13.4-0.4-1.1-0.1-1.2-1.9 0-1.9 4.5 0 9.1 0.4 13.5 1.3 0.6 0.1 0.4 0.9-0.1 1z"/></g><g style="opacity:.5;mix-blend-mode:overlay"><path class="d" d="m85.5 95.1c-5.1 2.8-9 6.8-13.2 10.6-0.4 0.4-1-0.1-0.7-0.5 3.2-5.2 8.1-8.2 13.5-10.8 0.4-0.2 0.8 0.5 0.4 0.7z"/></g><g style="opacity:.5;mix-blend-mode:overlay"><path class="d" d="m43.4 104.8c-8.9 5.3-18.8 11.7-28.6 15.1-0.6 0.2-1.2-0.7-0.7-1.1 8.3-6.4 18.9-11.2 28.2-15.9 1.3-0.6 2.4 1.2 1.1 1.9z"/></g><g style="opacity:.5;mix-blend-mode:overlay"><path class="d" d="m171 82.7c-0.9 3.8-1.8 7.7-3.8 11.1-0.2 0.5-1.1 0.3-1-0.3 0.5-3.9 2.2-7.6 3.8-11.2 0.2-0.6 1.1-0.2 1 0.4z"/></g><g style="opacity:.5;mix-blend-mode:overlay"><path class="d" d="m165.3 51.7c-1.5 4.2-0.1 7.4 2.1 11 0.4 0.7-0.4 1.5-1.1 1.1-4.3-2.7-4.4-8.6-1.9-12.5 0.3-0.5 1.2-0.2 0.9 0.4z"/></g><g style="opacity:.5;mix-blend-mode:overlay"><path class="d" d="m145.8 24.2c2.2 4.5 3 10.4 0.4 15-0.3 0.5-1.2 0.3-1.2-0.3 0.4-5 0.8-9.2-0.3-14.2-0.1-0.6 0.8-1.1 1.1-0.5z"/></g><g style="opacity:.5;mix-blend-mode:overlay"><path class="d" d="m138.8 31.1c-0.5 2.5-0.8 5-0.9 7.6-0.1 0.9-1.7 1.3-1.8 0.2-0.4-2.9 0-5.7 1.5-8.3 0.4-0.6 1.3-0.1 1.2 0.5z"/></g><g style="opacity:.5;mix-blend-mode:overlay"><path class="d" d="m179.7 51.1c2 1.4 4 2.8 5.9 4.4 0.6 0.6-0.2 1.6-0.9 1.2-2-1.4-3.9-3-5.8-4.6-0.6-0.5 0.2-1.5 0.8-1z"/></g><g style="opacity:.5;mix-blend-mode:overlay"><path class="d" d="m187.4 108.9c-5 1.3-12.2 1.5-16.3-2.1-0.4-0.4-0.1-1.3 0.6-1.3 2.3 0.2 4.3 1.1 6.6 1.5 2.9 0.6 5.9 0.6 8.9 0.4 0.8 0 1 1.3 0.2 1.5z"/></g><g style="opacity:.5;mix-blend-mode:overlay"><path class="d" d="m169.3 119.1c-6.3 3-13.9 2.7-20.3 0.3-0.6-0.3-0.4-1.3 0.3-1.1 6.8 1.2 12.9 0.7 19.7 0 0.5 0 0.6 0.7 0.3 0.8z"/></g><g style="opacity:.5;mix-blend-mode:overlay"><path class="d" d="m125.1 113.2c-4.6 0.5-9.6-0.1-14.1-1.1-0.8-0.2-0.6-1.3 0.1-1.3 4.6-0.4 9.7-0.1 14.2 1.2 0.7 0.2 0.5 1.1-0.2 1.2z"/></g><g style="opacity:.5;mix-blend-mode:overlay"><path class="d" d="m125.2 142.4c-2.6-0.8-5-1.9-7.5-3.1-0.4-0.2-0.1-0.8 0.3-0.7 2.6 0.9 5.1 1.8 7.6 3 0.5 0.2 0.1 1-0.4 0.8z"/></g><g style="opacity:.5;mix-blend-mode:overlay"><path class="d" d="m218.5 96.2c-3 2.9-6.4 6.1-10.1 8.2-0.7 0.4-1.4-0.5-0.9-1.1 2.8-3.2 6.7-5.8 10.3-8.1 0.6-0.4 1.2 0.5 0.7 1z"/></g><g style="opacity:.5;mix-blend-mode:overlay"><path class="d" d="m126.1 92.2c-3.4 2.2-8 5.7-12.1 5.9-0.8 0.1-0.9-0.8-0.6-1.3 2.4-3.1 7.9-5.1 11.5-6.6 1.3-0.6 2.4 1.1 1.2 2z"/></g><g style="opacity:.5;mix-blend-mode:overlay"><path class="d" d="m74.5 120.9c-2.7 3.4-7.5 7.6-12 8.2-0.7 0.1-0.8-0.8-0.5-1.2 1.4-1.8 3.4-2.7 5.2-3.9 2.1-1.5 4.1-3.1 6.2-4.5 0.9-0.5 1.6 0.7 1.1 1.4z"/></g><g style="opacity:.5;mix-blend-mode:overlay"><path class="d" d="m202.9 82.5c-1.2 2.7-2.3 5.7-4.4 7.8-0.5 0.5-1.2 0-1.1-0.6 0.6-3 2.4-5.6 4-8.1 0.6-1 2-0.2 1.5 0.9z"/></g></svg>