<svg version="1.2" xmlns="http://www.w3.org/2000/svg" viewBox="0 0 498 445" width="498" height="445"><defs><linearGradient id="P" gradientUnits="userSpaceOnUse"/><radialGradient id="g1" cx="171.4" cy="133" r="206" href="#P"><stop offset="0" stop-color="#7b2c16"/><stop offset=".2" stop-color="#9f6a28"/><stop offset="1" stop-color="#e4b235"/></radialGradient></defs><style>.a{fill:url(#g1)}.b{fill:#803c00}.c{fill:#fff}</style><path class="a" d="m265.7 120.4c-41.8 51.8 68.3 55.6 68.3 55.6l-17.1 6.8c19.7 15.5 74.6 26.6 74.6 26.6 0 0-51 10.1-49.2 47.2 1.7 37.1 103 45.5 103 45.5-31.6 11.7 31.1 33.1 31.1 33.1-12.6 7.5 22 15.8 22 15.8 0 0-108 22.9-140.3 23-32.2 0.1-86.5-31.7-86.5-31.7-19.7 16.9 43.2 102.8 43.2 102.8l-93.6-30.4c0 0-31 7.2-59.2-38.2-28.2-45.4-43.6-25.6-43.6-25.6-21.6 14.2-41 4.6-41 4.6 0 0-46.8-19.2-50.4-42.7-3.6-23.6-26.3-34.8-26.3-34.8 1-14.8 8-24.2 31.8-54.3 23.8-30-30.2-64.1-30.2-64.1 17.1 1.3 52.8-31.7 64.4-40.5 11.6-8.7 31.3-9.4 31.3-9.4l0.2-34.6c0 0 21.7 26.1 33.6 31.2 12 5.2 33.3 17.3 33.3 17.3 24.8-20.7 100.6-3.2 100.6-3.2z"/><path class="b" d="m175.4 134c15.1 59.8 84.4 83.8 139.6 79.3 1.4-0.1 1.4-2 0-2.1-31-3.1-61.7-3.6-89.2-20.5-23.2-14.3-35.3-34.8-48.3-57.6-0.6-1.2-2.4-0.4-2.1 0.9z"/><path class="b" d="m270.6 405.5c-60-57.8-78.5-133.9-95.6-212.3-8.1-37-15.7-74.6-18.9-112.4-1.1-11.9-2.8-25.2-0.9-37 3.1-18.9 25.3-42.6 35.3-17.1 1 2.5 4.9 1.5 4.1-1.1-4.8-15.9-13.1-31.3-29.6-22.2-26.8 14.8-13.9 83.1-10.9 104.6 13.6 99.5 33.6 231.2 114.4 299.5 1.4 1.2 3.4-0.7 2.1-2z"/><path class="b" d="m169.2 133.5c3.3 20.7-23.3 43.2-33.2 60.6-24.7 43.1-48.8 91.6-51.1 141.8 0 0.7-1.1 0.7-1.1 0-2.1-34.5 10.6-64.3 24.6-95.2 8.3-18.5 17.2-36.9 27.5-54.4 8.7-14.8 30.8-34.7 30.8-52.5-0.1-1.4 2.3-1.8 2.5-0.3z"/><path class="b" d="m43.7 158.7c43.6-6.1 85.9-12.4 127.2-28.1 2.1-0.8 3.5 2.6 1.5 3.5-37.8 17.6-86.6 27.5-128.4 26.5-1.1-0.1-1.4-1.8-0.3-1.9z"/><path class="b" d="m427.4 331.4c-104.4-28.1-220.5-86.3-253.7-197.8-0.3-1.1 1.2-1.4 1.6-0.5 45.5 111.2 144.5 160 252.9 195.4 1.8 0.6 1.1 3.4-0.8 2.9z"/><path class="b" d="m180.8 197.1c-3.7 46.5-5 91.2-3.5 137.9 0 1.1-1.9 1.4-2.1 0.2-6-44.9-4.7-93.8 4.2-138.3 0.1-0.8 1.5-0.6 1.4 0.2z"/><path class="b" d="m211.1 322.2c-9.2 16.7-3.9 43.7 6.7 58.7 0.7 1 2.6 0.4 2.2-0.9-3.4-9.3-6.9-18.4-8.2-28.3-1.3-9.9 0.5-19.5 0-29.4 0-0.3-0.5-0.5-0.7-0.1z"/><path class="b" d="m188.6 231.7c-0.9 12.8 16 27.5 24.3 36.2 8.4 8.9 18.1 16.6 26.2 25.7 0.7 0.8-0.2 2.1-1.1 1.5-13.9-8.7-25.5-22.2-36-34.6-6.7-8-17-17.6-14.2-28.9 0.1-0.5 0.9-0.4 0.8 0.1z"/><path class="b" d="m235.6 230c10.1 35 43.7 66.1 77.2 78.5 1 0.4 1.7-1.3 0.7-1.8-16.2-9-31.7-18.9-44.8-32.1-13.4-13.5-22-29.2-31.8-45.1-0.4-0.7-1.5-0.3-1.3 0.5z"/><path class="b" d="m141.7 180.3c-22.9 28.9-15.4 69-8.2 102.5 0.2 0.9 1.6 0.7 1.6-0.2-0.5-15-2.9-29.8-4.1-44.8-1.6-21 2.5-37.6 12-56.5 0.4-0.8-0.7-1.8-1.3-1z"/><path class="b" d="m123.7 215.2c-16.6 27.1-35.1 56.8-58.1 79.1-0.7 0.7-2-0.2-1.5-1.1 17.4-27.3 39.4-52.4 58.5-78.7 0.4-0.6 1.5-0.1 1.1 0.7z"/><path class="b" d="m141.3 148.4c-17.5 12.9-30.9 29.8-47.4 43.6-1 0.8-2.6-0.2-1.8-1.4 11.4-18.1 31.1-31.4 48.5-43.4 0.7-0.5 1.4 0.7 0.7 1.2z"/><path class="b" d="m80.4 134.7c9.6 1.2 19 3.7 28.7 4.7 9.8 1 19.6 0.4 29.3 1.6 1.1 0.1 1.5 1.7 0.3 2-17.7 3.7-42 0.7-58.6-6.2-1-0.4-1.1-2.3 0.3-2.1z"/><path class="b" d="m204.7 176.5c19.6 10.9 37.4 15.2 59.8 15.3 0.9 0 1.1 1.4 0.2 1.6-20.9 4.3-44.7-1.7-61.5-14.9-1.1-0.9 0.4-2.7 1.5-2z"/><path class="b" d="m268.4 212.8c14 9.9 28.8 14.4 45.3 18.5 1.5 0.4 1.1 2.7-0.4 2.7-17.1 0.3-33.8-8.4-46.2-19.6-0.9-0.8 0.3-2.3 1.3-1.6z"/><g style="opacity:.5;mix-blend-mode:overlay"><path class="c" d="m81.9 233c-7.3 9.4-14.1 20.3-23 28.2-1 0.9-2.6-0.2-1.9-1.4 6.4-10.2 16-18.8 24.1-27.6 0.5-0.6 1.2 0.2 0.8 0.8z"/></g><g style="opacity:.5;mix-blend-mode:overlay"><path class="c" d="m36.7 272.3c-5.6 2.7-11.1 5.6-17.1 7.5-1 0.3-1.6-1.3-0.7-1.8 5.4-3.1 11.3-5.2 17-7.5 1.1-0.5 1.9 1.4 0.8 1.8z"/></g><g style="opacity:.5;mix-blend-mode:overlay"><path class="c" d="m56.1 314.8c2.4 3 5.3 5.8 7 9.3 0.5 1-0.8 2.1-1.7 1.3-2.8-2.6-4.8-6.1-6.9-9.3-0.7-1 0.9-2.2 1.6-1.3z"/></g><g style="opacity:.5;mix-blend-mode:overlay"><path class="c" d="m156.3 234.2c-1.7 12.1-2.7 24.3-4.4 36.3-0.2 1.6-2.7 1.1-2.7-0.4 0.1-12.2 2.3-24.5 5.1-36.4 0.3-1.4 2.2-0.8 2 0.5z"/></g><g style="opacity:.5;mix-blend-mode:overlay"><path class="c" d="m150.6 306.7c2.8 7.3 6.8 14.9 8 22.6 0.3 1.6-1.8 2.7-2.7 1.2-4-6.9-5.7-15.4-8.1-23-0.5-1.8 2.1-2.4 2.8-0.8z"/></g><g style="opacity:.5;mix-blend-mode:overlay"><path class="c" d="m173.6 362c1.9 3.6 4 7 6.2 10.3 2 2.8 5.5 5.8 6 9.2 0.2 1.1-0.7 2.4-1.9 2-3.6-1.2-5.6-5.3-7.5-8.3-2.4-3.8-4.2-7.8-5.8-11.9-0.7-1.8 2.2-2.9 3-1.3z"/></g><g style="opacity:.5;mix-blend-mode:overlay"><path class="c" d="m193.2 325.2c1.1 3.2 2.3 6.4 3.1 9.7 0.4 1.5-1.7 2-2.3 0.6-1.3-3.1-2.2-6.4-3.2-9.6-0.4-1.6 1.9-2.2 2.4-0.7z"/></g><g style="opacity:.5;mix-blend-mode:overlay"><path class="c" d="m253.7 305.5c4.2 6.2 9.3 11.7 13.9 17.6 0.7 0.9-0.3 2.5-1.4 1.7-6.4-4.7-10.9-11-14.8-17.9-0.9-1.6 1.4-2.8 2.3-1.4z"/></g><g style="opacity:.5;mix-blend-mode:overlay"><path class="c" d="m301.3 331.3c13.7 8.7 28.1 13.4 43.1 19.1 2.3 0.8 1.4 3.9-1 3.5-15.8-2.3-30.8-11-43.4-20.4-1.3-0.9-0.1-3.2 1.3-2.2z"/></g><g style="opacity:.5;mix-blend-mode:overlay"><path class="c" d="m352.4 335.3c5.3 3.1 11.1 4.5 17.2 5 0.9 0.1 0.9 1.3 0 1.5-6.6 0.8-12.7-1.1-18.3-4.5-1.3-0.8-0.2-2.7 1.1-2z"/></g><g style="opacity:.5;mix-blend-mode:overlay"><path class="c" d="m399 338.2c9.3 1.3 18.9 1.4 28.4 1 0.7 0 0.9 1.2 0.1 1.3-9.9 1.9-19.3 1.7-29.2 0.1-1.6-0.2-0.9-2.6 0.7-2.4z"/></g><g style="opacity:.5;mix-blend-mode:overlay"><path class="c" d="m21.1 160.8c2.2-3.4 6.5-5.8 9.9-7.9 3.9-2.2 8.4-5 12.9-5.7 1.3-0.2 2 1.3 0.9 2.1-3.7 2.6-8.3 4.1-12.2 6.3-3.5 2-7 4.9-10.8 6.1-0.5 0.2-1-0.4-0.7-0.9z"/></g><g style="opacity:.5;mix-blend-mode:overlay"><path class="c" d="m62.5 171.7c4.1-0.9 8.9-1.8 13.1-1.5 1 0.1 1.3 1.5 0.2 1.8-4.1 1.2-8.9 1.2-13.2 1-0.7 0-0.9-1.1-0.1-1.3z"/></g><g style="opacity:.5;mix-blend-mode:overlay"><path class="c" d="m234 171.3c4.6-1.3 9.7-2.4 14.5-2.4 1.3-0.1 1.5 1.8 0.3 2.2-4.6 1.4-9.8 2-14.6 2.1-1.1 0.1-1.3-1.6-0.2-1.9z"/></g><g style="opacity:.5;mix-blend-mode:overlay"><path class="c" d="m213.4 222.5c1.5 4.3 3 8.6 5.3 12.6 1.9 3.3 4.7 6.1 6.1 9.6 0.4 1.1-1 1.8-1.8 1.4-7.2-4-10.9-15.7-11.7-23.4-0.1-1.2 1.7-1.3 2.1-0.2z"/></g><g style="opacity:.5;mix-blend-mode:overlay"><path class="c" d="m286.7 238.1c7.2 10.3 18.1 16.1 30.4 17.9 1.4 0.2 1 2.4-0.3 2.4-13.3-0.2-25.1-8-31.6-19.5-0.5-0.9 0.9-1.7 1.5-0.8z"/></g><g style="opacity:.5;mix-blend-mode:overlay"><path class="c" d="m112 197.6c-5.2 4.9-10.8 9.3-17.1 12.6-1 0.6-2-0.7-1.2-1.6 4.9-5.1 10.6-9.3 16.8-12.9 1.2-0.7 2.5 0.9 1.5 1.9z"/></g><g style="opacity:.5;mix-blend-mode:overlay"><path class="c" d="m70.5 212.7c-4.2 2.5-8.6 4.6-12.8 7.1-4.1 2.6-7.9 5.8-12.3 7.8-1 0.4-2.5-0.5-1.7-1.6 5.5-7.7 16.8-13.3 25.8-15.6 1.4-0.4 2.2 1.5 1 2.3z"/></g><g style="opacity:.5;mix-blend-mode:overlay"><path class="c" d="m112.4 124.5c7.9 4.1 15.2 4.7 23.9 5 1.5 0.1 1.6 1.9 0.4 2.4-8.5 3.4-18.9 0.6-25.9-4.7-1.6-1.2-0.3-3.7 1.6-2.7z"/></g><g style="opacity:.5;mix-blend-mode:overlay"><path class="c" d="m198 133.8c10.1-0.7 22.5-0.8 32.3 2.1 1 0.3 1.2 2 0 2.2-10.1 1.7-22.5 0-32.6-2-1.3-0.2-0.9-2.2 0.3-2.3z"/></g><g style="opacity:.5;mix-blend-mode:overlay"><path class="c" d="m214.2 158.4c3.9-0.3 7.9-0.1 11.6 1 1.1 0.3 0.8 1.8-0.2 1.9-3.9 0.4-7.8-0.1-11.6-1-1.1-0.3-0.8-1.9 0.2-1.9z"/></g><g style="opacity:.5;mix-blend-mode:overlay"><path class="c" d="m320 301c6.7 2.6 13.2 8.3 16.9 14.5 0.5 0.9-0.6 2.2-1.6 1.5-2.7-2.1-5.2-4.5-7.8-6.8-2.8-2.5-5.9-4.7-8.6-7.3-0.7-0.8 0-2.4 1.1-1.9z"/></g></svg>